<svg version="1.2" xmlns="http://www.w3.org/2000/svg" viewBox="0 0 1303 286" width="1303" height="286">
	<title>Frezgi-Logo-Color</title>
	<style>
		.s0 { opacity: .38;fill: #3a08ef } 
		.s1 { opacity: .38;fill: #69d7f1 } 
		.s2 { opacity: .39;fill: #f4f4f2 } 
		.s3 { opacity: .39;fill: #f80bd4 } 
		.s4 { opacity: .4;fill: #fa0304 } 
		.s5 { opacity: .71;fill: #ddf608 } 
		.s6 { opacity: .98;fill: #e8b881 } 
		.s7 { opacity: .99;fill: #c7e9dc } 
		.s8 { opacity: 1;fill: #5ba4d1 } 
		.s9 { opacity: 1;fill: #f6bb27 } 
		.s10 { opacity: 1;fill: #e73031 } 
		.s11 { opacity: 1;fill: #da5169 } 
		.s12 { opacity: 1;fill: #b29a39 } 
		.s13 { opacity: 1;fill: #f0b335 } 
		.s14 { opacity: 1;fill: #e72c2c } 
		.s15 { opacity: 1;fill: #9cadc0 } 
		.s16 { opacity: 1;fill: #1ea3d8 } 
		.s17 { opacity: 1;fill: #f5ba2b } 
		.s18 { opacity: 1;fill: #3c9745 } 
	</style>
	<g id="Background">
		<path id="Path 0" class="s0" d="m593 172h1v1h-1zm2 0h1v1h-1zm2 1v-1h5v1zm23 0v-1h8v1zm18 0v-1h9v1zm-2 33h1v1h-1zm2 1v-1h9v1zm-63 60h1v1h-1zm3 0h1v1h-1zm3 1v-1h2v1zm10 0v-1h2v1zm3 0v-1h6v1zm18-1h1v1h-1zm2 1v-1h3v1zm8 0v-1h2v1zm8-1h1v1h-1zm3 1v-1h2v1zm4-1h1v1h-1z"/>
		<path id="Path 1" fill-rule="evenodd" class="s1" d="m610 78h1v1h-1zm10 1l-7-1h7zm18 0v-1h9v1zm14 0v-1h4v1zm-69 94v-1h10v1zm19 0v-1h8v1zm9 0v-1h3v1zm5 0v-1h2v1zm3-1h1v1h-1zm-37 1h1v1h-1zm-1 13h1v9h-1zm-493 14v-2h1v2zm523 7v-1h3v1zm4 0v-1h3v1zm5 0v-1h4v1zm5 0v-1h2v1zm-537 10h1v1h-1zm427 50h1v1h-1zm2 1v-1h4v1zm5 0v-1h2v1zm4 0v-1h49v1zm58 0v-1h7v1zm19 0v-1h2v1zm3 0v-1h4v1z"/>
		<path id="Path 2" fill-rule="evenodd" class="s2" d="m1078 13h1v1h-1zm-447 3h8-1-6zm-611 0h1v1h-1zm1266 20v-19h1v19zm-68 4l1-22v1 13 8zm-43 7h1v1h-1zm-2 3h1v1h-1zm-3 4h1v1h-1zm-2 3h1v1h-1zm-2 3h1v1h-1zm-4 6h1v1h-1zm-3 4h1v1h-1zm-4 6h1v1h-1zm-450 1h1v1h-1zm-123 2v-1h1 4 8 15v1zm38 0v-1h18v1zm27 0v-1h5v1zm9 0v-1h13zm-75 0h1v1h-1zm572 0h1v1h-1zm-24 3h1v1h-1zm-548 12l1-10v29h-1v-8zm567-8h1v1h-1zm-2 3h1v1h-1zm-563 25v-1h6v1zm703 12v-13h1v153h-1zm-99-3v-2l1 3h-1zm0 41v-36h1v36zm-998 9l-1-3h1zm499-2h1v1h-1zm-106 1h1v1h-1zm28 0h1v1h-1zm4 1v-1h2v1zm4-1h1v1h-1zm47 1v-1h22zm-575 3v-1h3v1zm45 0v-1h13zm446 9h1v1h-1zm-493 13v-2h1v2zm0 4v-2h1zm493 2v-2h1v2zm1 2h1v1h-1zm28 0h1v1h-1zm4 0h1v1h-1zm4 1v-1h2v1zm6-1h1v1h-1zm3 0h1v1h-1zm38 1v-1l4 1zm5 0h33-13-13-2zm36 22v-19l1 19zm-618-11h1v1h-1zm1130 8h1v1h-1zm0 4v-2h1v2zm1 36l-1-31h1zm-200-20h1v1h-1zm149 2h1v1h-1zm-133 7h1v1h-1zm87 10h1v1h-1zm-606 2h1v1h-1zm5 0h1v1h-1zm3 1v-1h2v1zm78-1h1v1h-1zm3 0h1v1h-1zm5 0h1v1h-1zm55 1v-1h9v1zm27 0v-1h9v1zm528 0v-1h12v1zm28 0v-1h2v1zm3-1h1v1h-1zm3 0h1v1h-1zm2 0h1v1h-1zm4 1v-1h2v1zm6 0v-1h2v1zm14-1h1v1h-1zm3 1v-1h2v1z"/>
		<path id="Path 3" class="s3" d="m1218 48v-8h1v8zm0 100v-85h1v45 40zm0 34v-29h1v11 3 3 1 10 1zm-624-10h1v1h-1zm2 0h1v1h-1zm32 1v-1h10v1zm19 0v-1h18v1zm-19 34v-1h8v1h-7zm9-1h1v1h-1zm10 1v-1l12 1h-3-3zm14 0l4-1v1zm-573 12h1v1h-1zm488 49v-1h2v1zm3 0v-1h2v1zm4-1h1v1h-1zm10 0h1v1h-1zm7 1v-1h2v1zm11-1h1v1h-1zm2 0h1v1h-1zm4 1v-1h5v1zm7 0v-1h6v1zm7 0v-1h2v1zm4 0v-1h2v1zm3 0v-1h9v1zm18 0v-1h9v1z"/>
		<path id="Path 4" class="s4" d="m1286 39v-3h1v75h-1zm-68 24v-15h1v15zm0 90v-5h1v4 1zm0 62v-33h1v6 2 5 6 2 1 2 4 5zm-571 53v-1h9v1zm36 0v-1h7v1z"/>
		<path id="Path 5" class="s5" d="m1286 113v-2h1v2zm-675 1v-1h10v1zm11 0v-1h22v1zm25 0v-1h39v1h-1zm41 32v-32l1 42h-1zm345-15h1v1h-1zm-62 48h1v1h-1zm247 47v-11h1v1 2 1 1 1 1 3 1zm0 1h1v1h-1zm-512 23v-21h1zm293-21h1v1h-1zm1 1h1v1h-1zm218 5v-5h1v5zm-216-3h1v1h-1zm1 1h1v1h-1zm-298 23l1-4v8h-1zm451-2h1v1h-1zm-2 1h1v1h-1zm-449 9v-3h1v3zm-31 4v-1h9v1zm16 0v-1h2v1zm11 0v-1h4v1zm531 0v-1h16v1zm18-1h1v1h-1zm2 1v-1h2v1zm3-1h1v1h-1zm2 1v-1h3v1zm5 0v-1h4v1zm6 0v-1h12v1zm13 0v-1h2v1z"/>
		<path id="Path 6" fill-rule="evenodd" class="s6" d="m1085 14v-1h17v1zm-10 1v-1h2v1zm35 0v-1h2v1zm-42 1v-1h2v1zm49 0v-1h2v1zm-530 62l3-1 4-11 32-36 8-12-2-2h6l1 1-21 31-23 26v4zm476-62h1v1h-1zm59 1v-1h2v1zm-63 0h1v1h-1zm68 0h1v1h-1zm-72 1h1v1h-1zm76 0h1v1h-1zm-79 1h1v1h-1zm82 0h1v1h-1zm-85 1h1v1h-1zm88 0h1v1h-1zm-91 1h1v1h-1zm94 0h1v1h-1zm-97 1h1v1h-1zm100 0h1v1h-1zm-102 1h1v1h-1zm-3 1h1v1h-1zm110 0h1v1h-1zm-112 1h1v1h-1zm114 0h1v1h-1zm-116 1h1v1h-1zm118 0h1v1h-1zm-120 1h1v1h-1zm122 0h1v1h-1zm-124 1h1v1h-1zm126 0h1v1h-1zm-128 1h1v1h-1zm130 0h1v1h-1zm2 1h1v1h-1zm-135 1h1v1h-1zm-2 1h1v1h-1zm140 0h1v1h-1zm2 1h1v1h-1zm-145 1h1v1h-1zm146 0h1v1h-1zm2 1h1v1h-1zm-151 1h1v1h-1zm152 0h1v1h-1zm-153 1h1v1h-1zm156 1h1v1h-1zm-159 1h1v1h-1zm-1 1h1v1h-1zm163 0h1v1h-1zm1 1h1v1h-1zm1 3v-2l1 2zm-170 0h1v1h-1zm-1 1h1v1h-1zm-1 1h1v1h-1zm-1 1h1v1h-1zm-1 1h1v1h-1zm-1 1h1v1h-1zm-1 1h1v1h-1zm-1 1h1v1h-1zm-1 1h1v1h-1zm-1 1h1v1h-1zm172 0h1v1h-1zm-173 1h1v1h-1zm171 2h1v1h-1zm-174 2h1v1h-1zm-1 1h1v1h-1zm-2 3h1v1h-1zm-1 1h1v1h-1zm-2 3h1v1h-1zm-2 3h1v1h-1zm-1 2h1v1h-1zm99 2v-1h2v1zm19 0v-1h2v1zm-24 0h1v1h-1zm29 1v-1h2v1zm-125 0h1v1h-1zm92 0h1v1h-1zm37 1v-1h2v1h-1zm-40 0h1v1h-1zm-90 1h1v1h-1zm87 0h1v1h-1zm52 1h1v1h-1zm2 1h1v1h-1zm-60 1h1v1h-1zm-84 2h1v1h-1zm81 0h1v1h-1zm-1 1h1v1h-1zm71 0h1v1h-1zm-152 1h1v1h-1zm170 2h1v1h-1zm-171 1h1v1h-1zm-1 2h1v1h-1zm170 0h1v1h-1zm-171 2h1v1h-1zm167 1h1v1h-1zm-168 2h1v1h-1zm-460 85l3 1 29-32 35-53v11l-40 59-26 29-1-1zm459-82h1v1h-1zm-1 3h1v1h-1zm-1 3h1v1h-1zm-1 5v-2h1v1 1zm-1 3v-2h1v2zm66 8h1v1h-1zm50 3v-1l102 1v2h-1v-1l-1-1h-97zm-51 3l1-3v3zm94 52h-44v-55h1v16 30 8h3 23 1 1 2 1 5 1 4 2zm-95-47l1-4v4zm0 24v-5h1v4 1zm1 2v-2h1v4h-1zm1 4v-1l1 3h-1zm1 4v-1h1v2h-1zm1 3v-1l1 3h-1zm1 3v-1l1 2h-1zm1 4v-2h1v2zm1 1v-1l1 2h-1zm-915 2v-1h9v1zm916 0v-1l1 2h-1zm86 26l1-26h1l-1 26zm-85-24v-1l1 2h-1zm1 2v-1l2 3h-1zm2 3v-1l1 1v1zm-71 3l-1-3h1v1zm-886 3l1-5v5zm958-5h1v1h-1zm-71 4l-1-2h1v1zm73-1v-1l1 2zm-72 4l-1-2h1v1zm1 2l-1-2h1v1zm1 3l-1-2h1v1zm208 1v-2h1v2zm-207 1l-1-2h1v1zm78-1v-1l3 2h-1zm-77 3l-1-2h1v1zm80-2h1v1h-1zm2 2l-1-1h1l1 1zm-81 2l-1-2h1v1zm82-2h1v1h-1zm123 12l1-12h1l-2 36v-11-1-5zm-121-10l-1-1h1l1 1zm-83 2l-1-2h1v1zm84-1v-1l2 1h-1zm2 1v-1l2 1h-1zm55 0v-1h2v1zm-140 2l-1-2h1v1zm87-1v-1l5 2h-1-2l-1-1zm50 0v-1h2v1h-1zm-3 1l2-1v1h-1zm-131 5l-3-5h1l2 4zm89-4v-1l4 1h-2zm38 0v-1h3v1h-1zm-33 1v-1h2v1h-1zm29 0v-1h3v1zm-25 1v-1h8v1h-7zm16 0v-1h7v1h-4zm-8 1v-1h1 6 1v1zm-105 3l-1-2h1v1zm0 0h1v1h-1zm2 3l-1-2h1v1zm0 0h1v1h-1zm1 1h1v1h-1zm1 2v-1l1 1v1zm1 1h1v1h-1zm1 1h1v1h-1zm3 4l-2-3 2 2zm0 0h1v1h-1zm1 1h1v1h-1zm1 1h1v1h-1zm4 4h1v1h-1zm1 1h1v1h-1zm2 2h1v1h-1zm1 1h1v1h-1zm1 1h1v1h-1zm1 1h1v1h-1zm175 2v-2h2zm-171 1l-3-2h1zm0 0h1v1h-1zm166 1v-1h3l-3 2zm-165 0h1v1h-1zm4 3l-3-2h1l2 1zm158-1l2-1h1l-3 2zm-158 1h1v1h-1zm155 1l2-1h1l-3 2zm-153 1l-1-1h1l1 1zm1 0h1v1h-1zm149 1l2-1h1l-3 2zm-146 1l-2-1h1 1zm0 0h1v1h-1zm142 1l3-1v1l-3 1zm-139 1l-2-1h1 1zm2 1l-2-1h1 1zm135 0v-1h1 1zm-133 1l-2-1h1 1zm131 0v-1h1 1zm-130 1l-1-1h1l2 1v1h-1zm126 0l3-1h1l-4 2zm-123 2v-1h2v1h-1zm120 0v-1h2v1h-1zm-118 0h1v1h-1zm116 1v-1h1 1v1zm-112 1l-2-1h1 1zm110 0v-1h1 1zm-108 1l-2-1h1 1zm105 0v-1h2 1zm-102 1l-2-1h2zm98 0l1-1h2 1l-5 2v-1zm-95 1l-3-1h1 2zm90 0l3-1v1l-6 2v-1h2zm-87 1l-3-1h1 2zm3 1l-3-1h1 2zm4 1l-3-1h1 2zm73 0v-1h2 1v1h-2zm-69 1l-4-1h2 2zm66 0v-1h1 1v1zm-60 1l-5-1h1 4zm54 0v-1h3 1v1h-3zm-49 1l-5-1h2 3zm40 0v-1h1l2 1-3 1zm4 0v-1h3 2v1zm-36 1l-6-1h1 1 4zm1 0v-1h2v1zm25 0v-1h4 1v1zm-23 1v-1h2v1zm3 0v-1h18v1z"/>
		<path id="Path 7" fill-rule="evenodd" class="s7" d="m1079 14v-1h6v1h-4-1zm23 0v-1h6v1h-1-1zm-32 1l5-1v1h-3zm42 0v-1h4v1h-1-1zm-47 1v-1h3v1h-2zm54 0v-1l3 1h-1zm-480 1l-1-1h1 1 1 5 1 1 1 1 1 1 1 1 1 1 1 1 1 1 1 1 1 1 1 1 1 1 1 9 1 1 1 1 1 1 16 3 1l1 1h-1-55-6zm421 0l3-1v1h-2zm64 0v-1l3 1h-2zm96 0v-1h3 6 33 16 3 3l2 1h-1-44-18-1zm-515 1v-1l1 4v20 3 3 24 4 2h-1v-1-1zm351 0l3-1v1h-2zm72 0v-1l2 1h-1zm-75 1l2-1v1h-1zm79 0v-1l2 1h-1zm-82 1v-1h2v1h-1zm85 0v-1h2v1h-1zm84 12v-13h1v13zm-172-11l2-1v1h-1zm91 0v-1l2 1h-1zm-94 1l2-1v1h-1zm97 0v-1l2 1h-1zm3 0h1v1h-1zm-104 1h1v1h-1zm106 1v-1l2 1h-1zm9 3h1v1h-1zm-130 4l2-1v1h-1zm-5 3l2-1v1h-1zm151 3h1v1h-1zm-157 1h1v1h-1zm163 6h1v1h-1zm-1 1h1v1h-1zm-1 1h1v1h-1zm-1 2h1v1h-1zm-1 1h1v1h-1zm-1 2h1v1h-1zm-1 1h1v1h-1zm-176 5l1-2h1l-1 2zm174-2h1v1h-1zm-2 3h1v1h-1zm-1 1h1v1h-1zm-174 1h1v1h-1zm173 1h1v1h-1zm-1 1h1v1h-1zm-1 2h1v1h-1zm-1 1h1v1h-1zm-175 3l1-2v1 1zm174-1h1v1h-1zm-1 1h1v1h-1zm-1 1h1v1h-1zm-175 4l1-2v1 1zm174-2h1v1h-1zm-72 2v-1h5 7 5v1zm71-1h1v1h-1zm-77 2v-1h2 1zm28 0l-3-1h1 1 1zm-32 1v-1h1 1zm36 0l-2-1h1 1zm44-1h1v1h-1zm-83 1h1v1h-1zm43 1l-3-1h1 1 1zm39-1h1v1h-1zm-174 3l1-2v1 1zm89-1v-1h1 1zm49 0l-2-1h2zm-506 1v-1h31 3 57 1v1h-1-20-15-13-4-5-9-18zm454 0v-1h1 1zm53-1h1v1h-1zm34 0h1v1h-1zm-174 3l1-2v1 1zm85-1v-1h1 1zm57-1h1v1h-1zm31 0h1v1h-1zm-89 1h1v1h-1zm60 0h1v1h-1zm-543 3v-2h1v2zm481-2h1v1h-1zm64 0h1v1h-1zm26 0h1v1h-1zm-24 1h1v1h-1zm23 0h1v1h-1zm-20 2h1v1h-1zm19 0h1v1h-1zm-173 3l1-2v1 1zm156-2h1v1h-1zm16 0h1v1h-1zm-15 1h1v1h-1zm3 2l-2-1h1 1zm-161 0h1v1h-1zm161 0h1v1h-1zm10 0h1v1h-1zm-9 1h1v1h-1zm1 1h1v1h-1zm1 1h1v1h-1zm5 0h1v1h-1zm-171 3l1-2v1 1zm167-2h1v1h-1zm3 0h1v1h-1zm-171 5l1-2v1 1zm-1 3l1-2v1 1zm-1 3l1-2v1 1zm-1 2h1v1h-1zm249 44v-40h1v44h-1zm-638-34v-1h1 1v1zm8 0v-1h2v1zm3-1h1v1h-1zm2 0h1v1h-1zm17 1l-13-1h13zm10-1h1v1h-1zm23 1v-1h3v1zm42 0v-1l2 1h-1zm-498 4h1v1h-1zm846 6h1v1h-1zm153 4v-4h1v4zm-154 3v-2h1v2zm0 17v-2h1v2zm-345 20v-12h1v9 1 2 1 2h-1zm499 27v-31h1v36h-1v-3zm32-28v-3h1v3zm0 3h1v1h-1zm-638 3v-1h1v1 1 4l-1-4zm-447 2h1v1h-1zm447 5l1-1v6h-1v-2-2zm638 2v-1h1v7h-1zm0 13v-5h1v5zm-705 5v-8l1 1v7zm-426-4v-3h1v3zm493 4v-5h1v7h-1zm0 6v-2h1v2l1 1h10v1zm-67-1h1v1h-1zm83 3v-1h3v1zm14 0v-1h3 1 3 2v1zm10 0v-1h3 1 2 1 1v1zm32 0v-1h3v1zm8 0v-1h4v1zm14 0v-1h2v1zm15 0v-1h13 2v1zm15 48v-48h1v2 19 21 2zm-191 4v-51h1v6 51 1l-1-2v-2-2zm476-42h1v1h-1zm-902 5v-3h1v3zm913 8h1v1h-1zm32 23h1v1h-1zm-328 6h1v1h-1zm429 2h1v1h-1zm-4 2v-1h1 1zm-425 1v-1h1v1l-1 2v-1zm421-1h1v1h-1zm-1051 3v-1h4v1zm1011 0h1v1h-1zm19 0h1v1h-1z"/>
		<path id="Path 8" fill-rule="evenodd" class="s8" d="m607 77h-6l1-4 41-56h6l-11 11-32 46zm97-60h1v1h-1zm516 1v-1h2zm65 107v-86h1v87zm-581-49h1v1h-1zm-189 129l32-39 32-53 2 1h11l-12 3-23 42-15 18-14 24-13 14v-6l-1-1v-1l1-1zm80-92h1v1h-1zm-575 9v-8l65 79h3v5l-3 1-47-59zm668 24l-1-32h1zm-1 24l1-2v4h-107l105-1zm-106 24l-1-11h1zm-67 7h1v1h-1zm0 2h1v1h-1zm706 11h3v3l-3 1zm-1 4h1v1h-1zm0 7v-3h1zm-1130 1l-1-3h1zm426 41v-1h190v1zm66-61v-6 2 2z"/>
		<path id="Path 9" class="s9" d="m1142 238v19l-9 3v-21h5l-5-2v-5l20-3 6-3 3-6 8-2v13l8-1v9l-1 2-8 4v-9l-2 4-15-4z"/>
		<path id="Path 10" fill-rule="evenodd" class="s10" d="m1080 14h1v1h-1zm26 0h1v1h-1zm-34 2l6-1h1l-9 3v8l-6-2-3 7-8-1-1 4-16 6-2 4 15-6 1 4-16 15-1 5-8 4v3l-14 4-10 10-3-3v5l-3 1-2-3-12 6-1 8-7 6v-3l1-2v-1l1-2 1-3v-1l1-1v-1l2-4v-1l1-1v-1l1-1v-1l1-1v-2h1v-2h1l1-1v-1l1-1v-2l2-2v-1h1l1-1v-2h1l1-1v-1l4-4v-1l1-2 1-1h1l10-10v-1h2l3-3v-1h2l2-2v-1h2l1-1 2-1 1-1v-1h2l6-3 1-1h1l1-1h1l7-3 2-1 6-2 2-1h1l3-1 8-2h1l4-1zm42-1h1v1h-1zm-1091 2v-1h4zm178 0l-2-1h2zm7 2l-1-2h1zm-188 5v-6h1zm1030-4h1v1h-1zm-841 13l-1-12h1zm833-10h1v1h-1zm109 3h1v1h-1zm4 2h1v1h-1zm19 12h1v1h-1zm-982 38l10-16 6-3 1-5v23l-2 1zm-172 17v-11l4 9 17 15 49 67v1l-1 4-1 3-3-2-42-52zm952 8h1v1h-1zm-1 1h1l-1 2zm32 34l18-15-4-4 3-4 18-6-1 6-1 1v1l-1 1v1l-41 40-23 17-1-1-1-6-1-1v-6l3-6 18-6 15-19 3 1zm-816-21h1v1h-1z"/>
		<path id="Path 11" fill-rule="evenodd" class="s11" d="m1077 15v-1h1 1 1v1h-1-1zm30 0v-1h1 2v1zm-37 1v-1h2v1zm45 0v-1h1 1v1zm-1094 1v-1h2v1zm180 0v-1h7v1h-1zm863 0v-1h1 1v1h-1zm57-1h1v1h-1zm-1101 1h1v1h-1zm188 2v-2h1v4h-1zm852-2h1v1h-1zm67 1l-2-1h2zm-71 0h1v1h-1zm75 1l-2-1h1 1zm-78 0h1v1h-1zm80 0h1v1h-1zm3 1h1v1h-1zm-89 1h1v1h-1zm92 0h1v1h-1zm-95 1h1v1h-1zm98 0h1v1h-1zm3 1h1v1h-1zm-106 1h1v1h-1zm108 0h1v1h-1zm-110 1h1v1h-1zm112 0h1v1h-1zm-114 1h1v1h-1zm-2 1h1v1h-1zm120 0h1v1h-1zm-122 1h1v1h-1zm-2 1h1v1h-1zm128 0h1v1h-1zm-130 1h1v1h-1zm132 0h1v1h-1zm2 1h1v1h-1zm-139 2h1v1h-1zm142 0h1v1h-1zm-145 2h1v1h-1zm148 0h1v1h-1zm3 2h1v1h-1zm-155 1h1v1h-1zm158 1h1v1h-1zm-162 2h1v1h-1zm-1 1h1v1h-1zm-15 15h1v1h-1zm-3 4h1v1h-1zm-3 4h1v1h-1zm-2 3h1v1h-1zm95 5l2-1v1h-1zm23-1h1v1h-1zm-121 1h1v1h-1zm93 1l2-1v1h-1zm-3 0h1v1h-1zm-3 1h1v1h-1zm-90 3h1v1h-1zm-1 2h1v1h-1zm-1 2h1v1h-1zm-1 2h1v1h-1zm-2 5h1v1h-1zm-1 2h1v1h-1zm168 0h1v1h-1zm-169 3h1v1h-1zm-954 13v-12l23 34 42 52 3 2 1-3v4l-1 5-23-27-4-5zm953-10h1v1h-1zm-1 3h1v1h-1zm-1 3h1v1h-1zm-1 4h1v1h-1zm-1 3h1v1h-1zm-1 3h1v1h-1zm-851 63l8-1v1zm493 31h1v1h-1zm609 12h1v1h-1zm-107 47h1v1h-1z"/>
		<path id="Path 12" class="s12" d="m1219 201v-6h1v6zm0 2h1v1h-1zm0 7v-4h1v4zm0 5h1v1h-1z"/>
		<path id="Path 13" fill-rule="evenodd" class="s13" d="m583 78l7-14 27-32 3-16h11 1l2 2-8 12-32 36-4 11-3 1zm-69 82l6-2 2-5 7-2 10-10 42-59h1v2l-1 10-35 53-29 32-3-1v-16-1zm457 16l23-17 41-40v2l-1 3v1l-1 4v2 1 13 1 2l-1-17-10 3-47 44-1 5h-1l-1-3v-1l-1-1zm114-39v-16h3zm101 58v-72h1v1 4 36 31zm-152-40l-1-2h1zm1 4l-1-2h1v1zm1 4l-1-2h1v1zm1 3l-1-2h1v1zm51 9h-3v-8zm-51-7h1v1h-1zm1 2h1v1h-1zm1 3h1v1h-1zm1 2h1v1h-1zm1 2h1v1h-1zm1 2h1v1h-1zm2 3h1v1h-1zm-70 4v-2l1 2zm72-1h1v1h-1zm1 1h1v1h-1zm-72 2v-1l1 2h-1zm74 1h1v1h-1zm1 1h1v1h-1zm1 1h1v1h-1zm-74 2v-1l1 2h-1zm75-1h1v1h-1zm1 1h1v1h-1zm1 1h1v1h-1zm1 1h1v1h-1zm1 1h1v1h-1zm130 16v-15h1v3zm-127-14h1v1h-1zm3 2h1v1h-1zm3 2h1v1h-1zm61 1v-1h1 1zm-59 0h1v1h-1zm58 0h1v1h-1zm-56 1h1v1h-1zm53 0h1v1h-1zm-3 2v-1h1 1zm-45 0h1v1h-1zm42 1v-1h1 1zm-36 1l-3-1h2 1zm32 0v-1h1 2zm-28 1l-3-1h1 1 1zm23 0v-1h1 1zm-15 1l-7-1h7zm8 0v-1h3zm83 27l3-12v11l-1 1zm-5 2l5-2v2h-1l-1 1h-3zm-1 2h1v1h-1zm-140 15v-1l2 1h-1zm104 3h1v1h-1zm-87 3v-1l2 1h-1zm79 0l2-1v1h-1zm-75 1v-1l2 1zm71 0l2-1v1h-1zm-67 1v-1l2 1h-1zm63 0l3-1v1h-1-1zm-57 1v-1l2 1zm52 0l2-1v1zm-47 1v-1h3v1h-1zm11 0h23v1h-1-1-18-1-2zm27 0l2-1v1h-1zm5 0l-2-1h3v1zm-35 0h1v1h-1z"/>
		<path id="Path 14" fill-rule="evenodd" class="s14" d="m1080 15l1-1h4 17 4l1 1h3 2 2l1 1h2 2 2l1 1h2 1l2 1h1 1l2 1h1 1l1 1h1 1l1 1h1 1l1 1h1 1l1 1h1 1l1 1h1l1 1h1l1 1h1l1 1h1l1 1h1l1 1h1l1 1h1l1 1h1l1 1h1l1 1 1 1h1l1 1 1 1h1l1 1 1 1h1l1 1 1 1 1 1h1l1 1v2l-1 1-1 1v1l-1 1-1 1v1l-1 1-1 1-1 1v1l-1 1-1 1v1l-1 1-1 1v1l-1 1-1 1v1l-1 1-1 1v1l-1 1-1 1-1 1v1l-1 1-1 1v1l-1 1-1 1v1l-1 1-1 1v1l-1 1-1 1v1l-1 1-1 1-1 1v1l-1 1-1 1v1l-1 1-1 1h-1-1l-1-1-1-1-1-1-1-1-1-1h-1l-1-1-1-1h-1l-1-1-1-1h-1l-1-1h-1l-1-1h-1l-1-1-1-1h-1l-1-1h-1-1l-1-1h-2l-1-1h-1l-1-1h-2-1l-1-1h-2-1l-1-1h-1-2-5-7-5-2l-2 1h-2-1l-2 1h-1-1-1l-1 1h-1-1l-1 1h-1l-1 1h-1l-1 1h-1l-1 1h-1l-1 1-1 1h-1l-1 1-1 1-1 1-1 1-1 1-1 1-1 1-1 1-1 1-1 1-1 1-10 16-1 1-18 6-3 4 4 4-18 15 4-6-3-1-15 19-18 6-3 6-1-7-1-3 1-33 1-1v-4l1-1v-1-1l1-1v-2l1-1v-1l1-2 1-1 7-6 1-8 12-6 2 3 3-1v-5l3 3 10-10 14-4v-3l8-4 1-5 16-15-1-4-15 6 2-4 16-6 1-4 8 1 3-7 6 2v-8l9-3zm-8 1v-1h3 2 1zm-1049 1l4-1h172l2 1h6l1 2v2l1 12v21l-1 5-6 3-10 16h-103l-1 1 1 38h98l1 1 1 1v1l-1 4v45 1l1 3-41 2h-13-1-9l-8 1h-23l-1-1h-3l-49-67-17-15-4-9v-60l1-6v-1zm1043 0v-1h2 2zm-5 1v-1h2 1 1zm-4 1v-1h2 1 1zm-3 1v-1h1 1 1zm-3 1v-1h1 1zm-3 1v-1h1 1 1zm-3 1v-1h1 1 1zm-2 1v-1h1 1zm-4 1l1-1h1 1 1l-7 3v-1h1l1-1zm-5 2h1v1h-1zm-2 1h1v1h-1zm-2 2v-1h1 1zm-2 1v-1h1 1zm-2 1v-1h1 1zm-3 1h1v1h-1zm-2 2v-1h1 1zm-1 0h1v1h-1zm-3 2h1v1h-1zm-1 1h1v1h-1zm-3 2h1v1h-1zm-1 1h1v1h-1zm-1 1h1v1h-1zm-3 2h1v1h-1zm-1 1h1v1h-1zm-1 1h1v1h-1zm-1 1h1v1h-1zm-1 1h1v1h-1zm-1 1h1v1h-1zm-1 1h1v1h-1zm-1 1h1v1h-1zm-1 1h1v1h-1zm-1 1h1v1h-1zm-4 5h1v1h-1zm-1 1h1v1h-1zm-1 1h1v1h-1zm-2 3h1v1h-1zm-2 3h1v1h-1zm-4 6h1v1h-1zm-1 2h1v1h-1zm-3 5h1v1h-1zm-1 2h1v1h-1zm-1 2h1v1h-1zm-1 3v-1h1l-1 2zm-1 2v-1h1l-1 2zm-1 2h1v1h-1zm-1 3v-1h1l-1 3v-1zm-1 3v-1h1l-1 2zm-1 3v-1h1l-1 2zm-1 3v-1h1v2h-1z"/>
		<path id="Path 15" fill-rule="evenodd" class="s15" d="m595 78v-4l23-26 21-31h4l-41 56-1 4h12v1zm624-61h1v2h-1zm66 22v-22h1v22zm-66-7h1v76h-1zm-704 161l26-29 40-59v9l-2-1-32 53-32 39zm-495-79v-7l41 50 4 5 23 27h1v4h-4zm1199 38h1v12h-1zm0 18v-3h1v3zm0 11v-10h1v10zm-639 2v-2h1v2zm639 7v-2h1v2zm0 13v-2h1v2zm0 3v-2h1v2zm-626 2v-1h4v1zm7 0v-1h10v1zm20-1h1v1h-1zm9 1v-1h24v1zm27 0v-1h5v1zm9 0v-1h10v1zm12 0v-1h13v1zm542 7v-5h1v5zm-1147 52l3-1v1z"/>
		<path id="Path 16" fill-rule="evenodd" class="s16" d="m607 77l-1-3 32-46 11-11h55l1 1v57l-1 1v1zm613-59l2-1h63v108l-17 19-45 73v-3h-3zm-628 96l1-1h1l1 1 1-1h2l13 1h76l1 32v22l-1 2-1 1-105 1v2l1 4v1l-2 2v2l1 11v12l12 2h112v58h-190v-51l13-14 14-24 15-18 23-42zm-1-1h1v1h-1zm-571 153v-144l18 18 47 59 3-1v25l1 3v40h-7l-1 1h-1l-1-1h-4l-3 1h-50l-1-1zm494-66h1v1h-1zm0 2h1v1h-1zm0 2h1v1h-1zm0 2h1v1h-1z"/>
		<path id="Path 17" fill-rule="evenodd" class="s17" d="m514 160v-143l106-1-3 16-27 32-7 14h-1l-1 1v3l-42 59-10 10-7 2-2 5zm571-23l3-16h97l1 1v103l-3 12-5 2v-9l-8 1v-13l-8 2-3 6-6 3-20 3v5l5 2h-5v21l9-3v-19l10-2 15 4 2-4v9l8-4v1l-2 1-1 1-2 1-1 1-2 1-1 1-3 1-1 1h-1l-1 1h-1l-1 1-3 1-1 1h-2l-1 1h-1l-1 1h-1l-1 1h-2l-1 1h-2l-1 1h-2l-3 1-1 1h-2l-2 1h-2l-2 1h-1l-3 1h-3l-2 1h-7l-2 1h-34l-1-1h-6l-2-1h-4l-2-1h-2l-2-1h-2l-2-1h-2l-1-1h-2l-1-1h-2l-1-1h-2l-1-1h-1l-1-1h-1l-2-1-1-1h-2l-1-1-2-1-1-1h-1l-1-1h-1l-1-1h-1l-2-2h-1l-1-1h-1l-3-3-2-1-2-2h-1l-6-6h-1l-1-1v-1l-1-1h-1l-3-3v-1l-5-5v-1l-3-3v-1l-2-2v-1l-2-2v-1l-1-1-2-4-1-1v-1l-1-1v-1l-1-1v-1l-1-1v-1l-1-1v-1l-1-1v-1l-1-2v-1l-1-1v-1l-1-2v-1l-1-2v-1l1-5 47-44 10-3 1 17v5l1 2v2l1 2v2l1 2v1l1 2v2l1 1v1l1 1v2l1 1v1l1 1v1l1 1v1l1 1 1 2 2 2v1l3 3v1l8 8 2 1 1 1h1l2 2h1l2 2h1l1 1h1l1 1h1l1 1h2l1 1h2l3 1h1l3 1h1l7 1h8l3-1h4l2-1h3l3-1h1l2-1h1l2-1h1l1-1h2l1-1 2-1 1-26-1-1h-40l-3-8zm92 104l1-2v2z"/>
		<path id="Path 18" fill-rule="evenodd" class="s18" d="m1223 217l45-73 17-19 1 1v140l-1 1h-65l-1-1v-41l1-3-1-1v-1l1-1v-1zm-4 1v-2h1v2z"/>
		<path id="Path 19" class="s0" d="m579 195h1v1h-1z"/>
		<path id="Path 20" class="s1" d="m583 207v-1h27v1h-10-3-4zm-70 53h1v1h-1z"/>
		<path id="Path 21" class="s2" d="m1116 14h1v1h-1zm-476 1h1v1h-1zm6 0h1v1h-1zm2 0h1v1h-1zm2 0h1v1h-1zm2 0h1v1h-1zm2 0h1v1h-1zm2 0h1v1h-1zm2 0h1v1h-1zm2 0h1v1h-1zm2 0h1v1h-1zm2 0h1v1h-1zm2 0h1v1h-1zm2 0h1v1h-1zm10 0h1v1h-1zm2 0h1v1h-1zm2 0h1v1h-1zm21 0h1v1h-1zm361 0h1v1h-1zm-694 1h1v1h-1zm849 0h1v1h-1zm-831 2h1v1h-1zm4 1h1v1h-1zm657 0h1v1h-1zm88 0h1v1h-1zm8 3h1v1h-1zm-106 1h1v1h-1zm-627 2h1v1h-1zm744 2h1v1h-1zm5 3h1v1h-1zm8 5h1v1h-1zm3 2h1v1h-1zm-159 1h1v1h-1zm-577 2h1v1h-1zm513 3h1v1h-1zm57 1h1v1h-1zm-5 5h1v1h-1zm-56 2h1v1h-1zm54 0h1v1h-1zm-1 1h1v1h-1zm-1 1h1v1h-1zm-1 1h1v1h-1zm-4 5h1v1h-1zm-538 5h1v1h-1zm295 13h1v1h-1zm2 0h1v1h-1zm2 0h1v1h-1zm-665 1h1v1h-1zm888 8h1v1h-1zm77 1h1v1h-1zm-1 1h1v1h-1zm-2 2h1v1h-1zm-1 1h1v1h-1zm94 1h1v1h-1zm-309 11h1v1h-1zm136 0h1v1h-1zm-1 4h1v1h-1zm-1 5h1v1h-1zm-780 5h1v1h-1zm710 5h1v1h-1zm-78 2h1v1h-1zm-4 6h1v1h-1zm-2 3h1v1h-1zm74 4h1v1h-1zm-80 5h1v1h-1zm226 10h1v1h-1zm-234 2h1v1h-1zm-287 7h1v1h-1zm523 0h1v1h-1zm-347 4h1v1h-1zm103 1h1v1h-1zm76 1h1v1h-1zm-179 1h1v1h-1zm350 2h1v1h-1zm-69 5h1v1h-1zm-551 5h1v1h-1zm-104 12v-2h1zm35 0h1v1h-1zm711 6h1v1h-1zm-629 2h1v1h-1zm2 3h1v1h-1zm685 1h1v1h-1zm-683 2h1v1h-1zm505 1v-1h3v1zm4-1h1v1h-1zm-240 1h1v1h-1zm248 38v-21h1zm-638-17v-3l1 3zm0 37h1v1h-1zm-294 1h1v1h-1zm60 0h1v1h-1z"/>
		<path id="Path 22" class="s3" d="m944 206h1v1h-1zm2 1v-1l3 1zm6-1h1v1h-1zm-864 6h1v1h-1zm0 4h1v1h-1z"/>
		<path id="Path 23" class="s4" d="m753 225h1v1h-1z"/>
		<path id="Path 24" class="s5" d="m1084 120h1v1h-1zm-51 25h1v1h-1zm-845 24h1v1h-1zm858 14h1v1h-1zm76 20h1v1h-1zm-10 3h1v1h-1zm-30 1h1v1h-1zm26 0h1v1h-1zm-16 1h1v1h-1zm7 0h1v1h-1zm-393 56h1v1h-1z"/>
		<path id="Path 25" fill-rule="evenodd" class="s6" d="m208 16h1v1h-1zm968 28h1v1h-1zm-2 3h1v1h-1zm-2 3h1v1h-1zm-5 7h1v1h-1zm-2 3h1v1h-1zm-2 3h1v1h-1zm-2 3h1v1h-1zm-3 4h1v1h-1zm-2 3h1v1h-1zm-40 2h1v1h-1zm3 1h1v1h-1zm35 0h1v1h-1zm-29 3h1v1h-1zm27 0h1v1h-1zm-91 1h1v1h-1zm66 0h1v1h-1zm23 2h1v1h-1zm-18 1h1v1h-1zm3 2h1v1h-1zm4 3h1v1h-1zm1 1h1v1h-1zm5 0h1v1h-1zm-4 1h1v1h-1zm-326 42h1v1h-1zm-2 3h1v1h-1zm-15 22h1v1h-1zm170 11h1v1h-1zm-875 7h1v1h-1zm878 3h1v1h-1zm-391 2h1v1h-1zm-496 1h1v1h-1zm963 4h1v1h-1zm2 3h1v1h-1zm1 1h1v1h-1zm1 1h1v1h-1zm1 1h1v1h-1zm1 1h1v1h-1zm1 1h1v1h-1zm1 1h1v1h-1zm1 1h1v1h-1zm69 7h1v1h-1zm-175 4h1v1h-1zm-193 13h1v1h-1zm-441 17l-1-8h1zm683-8h1v1h-1zm1 1h1v1h-1zm1 1h1v1h-1zm3 3h1v1h-1zm181 3h1v1h-1zm-4 3h1v1h-1zm-866 26l1-3v3zm389-1h1v1h-1z"/>
		<path id="Path 26" class="s7" d="m949 43v-26l1 26zm-549-22h1v1h-1zm4 1h1v1h-1zm638 0h1v1h-1zm-5 2h1v1h-1zm112 0h1v1h-1zm-114 1h1v1h-1zm116 0h1v1h-1zm-118 1h1v1h-1zm120 0h1v1h-1zm-122 1h1v1h-1zm-2 1h1v1h-1zm128 0h1v1h-1zm-130 1h1v1h-1zm132 0h1v1h-1zm-135 2h1v1h-1zm138 0h1v1h-1zm-140 1h1v1h-1zm142 0h1v1h-1zm2 1h1v1h-1zm-147 1h1v1h-1zm148 0h1v1h-1zm-149 1h1v1h-1zm-2 1h1v1h-1zm154 0h1v1h-1zm-155 1h1v1h-1zm158 1h1v1h-1zm1 1h1v1h-1zm-163 1h1v1h-1zm165 0h1v1h-1zm-166 1h1v1h-1zm-1 1h1v1h-1zm-570 1h1v1h-1zm569 0h1v1h-1zm-3 2h1v1h-1zm-57 1h1v1h-1zm56 0h1v1h-1zm-1 1h1v1h-1zm-1 1h1v1h-1zm-2 2h1v1h-1zm-59 7h1v1h-1zm53 0h1v1h-1zm-1 1h1v1h-1zm-2 3h1v1h-1zm-1 1h1v1h-1zm-1 2h1v1h-1zm-1 1h1v1h-1zm-2 3h1v1h-1zm-53 1h1v1h-1zm52 1h1v1h-1zm-2 3h1v1h-1zm-1 2h1v1h-1zm-232 2h1v1h-1zm2 0h1v1h-1zm2 1v-1h98v1l-1 1zm-173 0h1v1h-1zm269 2h1v1h-1zm129 0h1v1h-1zm-130 1h1v1h-1zm129 1h1v1h-1zm-131 2h1v1h-1zm-2 3h1v1h-1zm-384 2h1v1h-1zm514 0h1v1h-1zm-132 1h1v1h-1zm-2 3h1v1h-1zm-2 3h1v1h-1zm-2 3h1v1h-1zm-5 7h1v1h-1zm-2 3h1v1h-1zm-2 3h1v1h-1zm-2 3h1v1h-1zm-2 3h1v1h-1zm143 0h1v1h-1zm-145 3h1v1h-1zm-1 2h1v1h-1zm-2 3h1v1h-1zm67 14h1v1h-1zm-14 21h1v1h-1zm-455 16h1v1h-1zm7 11h1v1h-1zm6 9h1v1h-1zm634 3h1v1h-1zm-111 7h1v1h-1zm-198 15h1v1h-1zm198 1h1v1h-1zm78 30h1v1h-1zm-559 8h1v1h-1zm2 3h1v1h-1zm1 2h1v1h-1z"/>
		<path id="Path 27" class="s8" d="m580 173h1v1h-1zm642 35h1v1h-1z"/>
		<path id="Path 28" fill-rule="evenodd" class="s9" d="m249 266v-183l11 11v5l9 7v6l9 8v5l9 8v4l9 8v6l9 9v8l18 18h-7v3l-1 1v38l1 8v26l-1 3v1l-65 1zm873-24l2 7-7-3zm4 3h1v1h-1zm22 8h1v1h-1zm-23 6l4 2h-7zm-49 6h1v1h-1z"/>
		<path id="Path 29" class="s10" d="m1106 72h1v1h-1zm-33 2h1v1h-1zm41 0h1v1h-1zm-44 1h1v1h-1zm52 2h1v1h-1zm26 7h1v1h-1zm-2 3h1v1h-1zm-108 21h1v1h-1zm-223 25h1v1h-1zm-2 3l1-1h1l1 1 1 1h1l1 1h1l2 1 2 1 2 1 2 1 1 1 2 1 3 2 2 1 2 1 3 2 2 1 1 1 2 1 1 1 2 1 1 1 2 1 1 1 2 1 1 1 3 2 1 1 2 1 1 1 2 1 1 1h1v1 1 1l-1 1-5 8-1 1-1 2-1 1-10 16-1 1-3 6h95l2 1h3 1 1 3 1 1 1 1l1 1v8l-1 7v1 21 22h-206v-26l1 4 2-3 5 2v-20-1l1-1 1-2 1-1 34-52 1-1 5-8 1-1 1-2 1-1 7-11 1-1z"/>
		<path id="Path 30" fill-rule="evenodd" class="s11" d="m1175 45h1v1h-1zm-2 3h1v1h-1zm-2 3h1v1h-1zm-1 1h1v1h-1zm-1 2h1v1h-1zm-1 1h1v1h-1zm-2 3h1v1h-1zm-2 3h1v1h-1zm-2 3h1v1h-1zm-2 3h1v1h-1zm-1 1h1v1h-1zm-2 3h1v1h-1zm-47 2h1v1h-1zm45 1h1v1h-1zm-87 2h1v1h-1zm-2 1h1v1h-1zm87 0h1v1h-1zm-89 1h1v1h-1zm60 0h1v1h-1zm-62 1h1v1h-1zm89 1h1v1h-1zm-92 1h1v1h-1zm70 0h1v1h-1zm-71 1h1v1h-1zm73 0h1v1h-1zm-74 1h1v1h-1zm92 0h1v1h-1zm-93 1h1v1h-1zm78 0h1v1h-1zm-79 1h1v1h-1zm-1 1h1v1h-1zm83 0h1v1h-1zm10 0h1v1h-1zm-9 1h1v1h-1zm6 3h1v1h-1zm-108 25h1v1h-1zm-1 2h1v1h-1zm-197 31l-2-1h2zm5 3l-2-1h2zm3 2l-2-1h2zm3 2l-2-1h2zm3 2l-2-1h2zm7 5l-3-2 3 1zm8 5h1v1h-1zm74 40l-2-1h2zm12 16l1-7v7z"/>
		<path id="Path 31" class="s12" d="m249 59v-8l14 12 49 68 17 30 17 17 4 13-1-1-1-1-3-3-84-117zm567 72l1-1h1l53 33v1l-1 1-1 1v1h-1-1-1l-1-1-2-1-1-1-2-1-1-1v-1l-3-1-1-1-2-1-1-1v-1h-2l-1-1v-1h-2l-1-1v-1h-2l-1-1v-1h-2l-3-2v-1h-2l-2-1-3-2-2-1-1-1-2-1-2-1-2-1-2-1h-1l-1-1h-1l-1-1-1-1h-1v-1h1l1-1v-1z"/>
		<path id="Path 32" class="s13" d="m249 75v-16l12 10 84 117h-14l-8-11v-6l-9-7v-4l-9-9v-7l-9-7-9-17-18-19v-4l-9-7v-4zm936 46h1v1h-1zm-318 47h1v1h-1zm244 6h1v1h-1zm17 1h1v1h-1zm-152 15h1v1h-1zm2 5h1v1h-1zm1 2h1v1h-1zm1 2h1v1h-1zm1 2h1v1h-1zm1 2h1v1h-1zm1 2h1v1h-1zm88 0h1v1h-1zm-85 5h1v1h-1zm1 2h1v1h-1zm1 1h1v1h-1zm1 2h1v1h-1zm1 1h1v1h-1zm2 3h1v1h-1zm1 1h1v1h-1zm3 4h1v1h-1zm1 1h1v1h-1zm1 1h1v1h-1zm5 5h1v1h-1zm3 3h1v1h-1zm1 1h1v1h-1zm1 1h1v1h-1zm1 1h1v1h-1zm-552 2h1v1h-1zm556 1h1v1h-1zm1 1h1v1h-1zm3 2h1v1h-1zm157 0h1v1h-1zm-156 1h1v1h-1zm153 1h1v1h-1zm-150 1h1v1h-1zm2 1h1v1h-1zm145 0h1v1h-1zm-144 1h1v1h-1zm2 1h1v1h-1zm138 0h1v1h-1zm-136 1h1v1h-1zm134 0h1v1h-1zm-132 1h1v1h-1zm130 0h1v1h-1zm-127 2h1v1h-1zm123 0h1v1h-1zm-120 1h1v1h-1zm117 0h1v1h-1zm-2 1h1v1h-1zm-111 1h1v1h-1zm109 0h1v1h-1zm-107 1h1v1h-1zm104 0h1v1h-1zm-101 1h1v1h-1zm98 0h1v1h-1zm-95 1h1v1h-1zm3 1h1v1h-1zm86 0h1v1h-1z"/>
		<path id="Path 33" class="s14" d="m1025 32h1v1h-1zm-6 4h1v1h-1zm-4 3h1v1h-1zm-25 26h1v1h-1zm-4 6h1v1h-1zm-3 5h1v1h-1zm-1 2h1v1h-1zm20 60h1v1h-1zm-1 1h1v1h-1zm-247 86l1-1v20l-5-2-2 3-1-4v-7l6-8z"/>
		<path id="Path 34" class="s15" d="m251 16h1v1h-1zm597 67h1v1h-1zm-2 3h1v1h-1zm-2 3h1v1h-1zm-2 3h1v1h-1zm-2 3h1v1h-1zm-2 3h1v1h-1zm-3 4h1v1h-1zm-2 3h1v1h-1zm-257 1h1v1h-1zm255 2h1v1h-1zm-258 3h1v1h-1zm256 0h1v1h-1zm-2 3h1v1h-1zm-2 3h1v1h-1zm-258 3h1v1h-1zm256 0h1v1h-1zm-1 2h1v1h-1zm-257 1h1v1h-1zm255 2h1v1h-1zm-2 3h1v1h-1zm-1 1h1v1h-1zm-258 3h1v1h-1zm-2 3h1v1h-1zm-2 3h1v1h-1zm-2 3h1v1h-1zm-2 3h1v1h-1zm-2 3h1v1h-1zm-35 61h1v1h-1zm-56 32h1v1h-1zm2 3h1v1h-1zm2 3h1v1h-1zm1 2h1v1h-1zm1 1h1v1h-1zm1 2h1v1h-1zm1 1h1v1h-1zm1 2h1v1h-1zm1 1h1v1h-1zm1 2h1v1h-1zm1 1h1v1h-1zm1 2h1v1h-1zm2 3h1v1h-1zm-394 3h1v1h-1zm380 1l16-1v1z"/>
		<path id="Path 35" class="s16" d="m1219 221h1v1h-1z"/>
		<path id="Path 36" class="s17" d="m249 83v-8l11 9v4l9 7v4l18 19 9 17 9 7v7l9 9v4l9 7v6l8 11h-8l-18-18v-8l-9-9v-6l-9-8v-4l-9-8v-5l-9-8v-6l-9-7v-5zm768 103h1v1h-1zm7 18h1v1h-1zm149 32h1v1h-1zm3 0h1v1h-1z"/>
		<path id="Path 37" fill-rule="evenodd" class="s18" d="m251 17l1-1h118l1 1 17 1 1 1h3l1 1 7 1 1 1h3l1 1 7 2 1 1 23 14 4 4 14 20 1 1 6 24 1 1-3 37-1 1-2 7-1 1-2 5-1 1-9 13-5 5-5 4-1 1-14 8-1 4 1 1 1 2 1 1 4 7 1 1 5 8 1 1 1 2 1 1 1 2 1 1 1 2 1 1 20 32 2 2 1 2 1 1 1 2 1 1v1l2 2v1l2 2v1l2 2v1l2 2v1l2 2v1l2 2v1l-16 1h-61l-3-6-1-1-15-24-1-1-16-25-1-1-10-16v-1l-1-1-4-13-17-17-17-30-49-68-14-12zm64 61v56h53l1-1 14-4 8-8 3-7 1-1 1-12-1-1-4-13-12-8-1-1h-2l-1-1h-59zm433-61h201v28l-1 1v1l-1 1v1l-2 2v1l-1 1v1l-3 3v1l-1 1v1l-2 2v1l-2 2v1l-3 3v1l-1 1v1l-2 2v1l-2 2v1l-2 2v1l-2 2v1l-2 2v1l-2 2v1l-2 2v1l-2 2v1l-2 2v1l-2 2v1l-2 2v1l-2 2v1l-2 2v1l-2 2v1l-2 2v1l-2 2v1l-2 2v1l-2 2v1l-2 2v1l-1 1v1l-2 2v1l-3 3v1l-2 2v1l-1 1v1l-2 2v1l-2 2v1l-2 2v1l-2 2v1l-2 2v1l-3 3v1l-1 1-53-33v-1l1-1v-1l2-2v-1l2-2v-1l1-1v-1l2-2v-1l2-2v-1l2-2v-1l2-2v-1l2-2v-1l2-2 1-2 2-2v-1l2-2v-1l2-2v-1l2-2v-1l2-2v-1l2-2v-1l2-2v-1l1-1v-1h-103l-1-5zm-44 58h1v1h-1zm-19 39h1v1h-1zm577 32h1v1h-1zm-2 3h1v1h-1zm-1199 7h1v1h-1zm4 5h1v1h-1zm1184 6h1v1h-1zm-563 3h1v1h-1zm552 15h1v1h-1zm-14 22h1v1h-1zm-1 1h1v1h-1z"/>
		<path id="Path 38" class="s1" d="m394 260h1v1h-1z"/>
		<path id="Path 39" class="s2" d="m315 77h1v1h-1zm60 0h1v1h-1zm3 1h1v1h-1zm80 49h1v1h-1zm-3 8h1v1h-1zm-3 6h1v1h-1zm-10 14h1v1h-1zm-1 1h1v1h-1zm-3 3h1v1h-1zm-6 5h1v1h-1zm-84 25h1v1h-1zm13 20h1v1h-1zm17 26h1v1h-1z"/>
		<path id="Path 40" class="s3" d="m858 182h1v1h-1z"/>
		<path id="Path 41" class="s6" d="m869 165h1v1h-1zm-3 5h1v1h-1zm-551 19h1v1h-1zm-66 77h1v1h-1z"/>
		<path id="Path 42" class="s7" d="m946 49h1v1h-1zm-2 3h1v1h-1zm-1 2h1v1h-1zm-1 1h1v1h-1zm-3 5h1v1h-1zm-2 3h1v1h-1zm-2 3h1v1h-1zm-4 6h1v1h-1zm-2 3h1v1h-1zm-2 3h1v1h-1zm-2 3h1v1h-1zm-2 3h1v1h-1zm-2 3h1v1h-1zm-2 3h1v1h-1zm-2 3h1v1h-1zm-2 3h1v1h-1zm-2 3h1v1h-1zm-2 3h1v1h-1zm-2 3h1v1h-1zm-2 3h1v1h-1zm-2 3h1v1h-1zm-2 3h1v1h-1zm-2 3h1v1h-1zm-2 3h1v1h-1zm-2 3h1v1h-1zm-2 3h1v1h-1zm-2 3h1v1h-1zm-1 2h1v1h-1zm-1 1h1v1h-1zm-1 2h1v1h-1zm-1 1h1v1h-1zm-2 3h1v1h-1zm-2 3h1v1h-1zm-1 2h1v1h-1zm-1 1h1v1h-1zm-1 2h1v1h-1zm-2 3h1v1h-1zm-2 3h1v1h-1zm-2 3h1v1h-1zm-2 3h1v1h-1zm-3 4h1v1h-1zm-1 2h1v1h-1z"/>
		<path id="Path 43" class="s10" d="m838 146h1v1h-1zm8 5h1v1h-1z"/>
		<path id="Path 44" class="s11" d="m815 135h1v1h-1zm1 1h1v1h-1zm2 1h1v1h-1zm10 5h1v1h-1zm15 7h1v1h-1zm0 2h1v1h-1zm3 2h1v1h-1zm3 2h1v1h-1zm3 2h1v1h-1zm3 2h1v1h-1zm4 1h1v1h-1zm0 2h1v1h-1zm3 2h1v1h-1zm3 2h1v1h-1zm-5 13h1v1h-1z"/>
		<path id="Path 45" class="s12" d="m264 63h1v1h-1zm13 19h1v1h-1zm595 78h1v1h-1zm-522 31h1v1h-1z"/>
		<path id="Path 46" class="s13" d="m847 199h1v1h-1z"/>
		<path id="Path 47" class="s14" d="m816 132h1v1h-1zm2 3h1v1h-1zm31 18h1v1h-1zm3 2h1v1h-1z"/>
		<path id="Path 48" class="s15" d="m948 45h1v1h-1zm-1 2h1v1h-1zm-2 3h1v1h-1zm-4 6h1v1h-1zm-1 2h1v1h-1zm-2 3h1v1h-1zm-2 3h1v1h-1zm-2 3h1v1h-1zm-1 1h1v1h-1zm-1 2h1v1h-1zm-2 3h1v1h-1zm-2 3h1v1h-1zm-76 1h1v1h-1zm74 2h1v1h-1zm-2 3h1v1h-1zm-2 3h1v1h-1zm-2 3h1v1h-1zm-2 3h1v1h-1zm-2 3h1v1h-1zm-2 3h1v1h-1zm-519 3h1v1h-1zm517 0h1v1h-1zm-2 3h1v1h-1zm-2 3h1v1h-1zm-2 3h1v1h-1zm-2 3h1v1h-1zm-2 3h1v1h-1zm-2 3h1v1h-1zm-2 3h1v1h-1zm-2 3h1v1h-1zm-2 3h1v1h-1zm-6 9h1v1h-1zm-2 3h1v1h-1zm-5 8h1v1h-1zm-2 3h1v1h-1zm-2 3h1v1h-1zm-2 3h1v1h-1zm-2 3h1v1h-1z"/>
		<path id="Path 49" class="s2" d="m394 113h1v1h-1zm-4 8h1v1h-1z"/>
		<path id="Path 50" class="s15" d="m368 133h1v1h-1z"/>
	</g>
</svg>